<svg width="56" height="56" viewBox="0 0 56 56" fill="none" xmlns="http://www.w3.org/2000/svg">
<path d="M24.325 7.35659L23.3938 6.52276L23.3937 6.52282L24.325 7.35659ZM31.9095 7.35659L32.8409 6.52289L32.8407 6.52276L31.9095 7.35659ZM33.6911 9.34688L32.7597 10.1806L32.7597 10.1806L33.6911 9.34688ZM37.7658 11.0343L37.6969 9.78621L37.6966 9.78622L37.7658 11.0343ZM40.4382 10.8867L40.3694 9.63858L40.3693 9.63859L40.4382 10.8867ZM45.8008 16.2518L44.5527 16.1824L44.5527 16.1828L45.8008 16.2518ZM45.6532 18.9217L44.4051 18.8526L44.4051 18.853L45.6532 18.9217ZM47.3406 22.9939L46.5069 23.9252L46.5069 23.9252L47.3406 22.9939ZM49.3309 24.7754L48.4972 25.7068L48.4974 25.707L49.3309 24.7754ZM49.3309 32.3625L48.4974 31.4309L48.4972 31.4311L49.3309 32.3625ZM47.3406 34.1441L46.5069 33.2127L46.5069 33.2127L47.3406 34.1441ZM45.6532 38.2188L46.9013 38.1499L46.9013 38.1496L45.6532 38.2188ZM45.8008 40.8912L47.0489 40.8224L47.0489 40.8223L45.8008 40.8912ZM40.4357 46.2538L40.5051 45.0057L40.5047 45.0057L40.4357 46.2538ZM37.7658 46.1062L37.8349 44.8581L37.8345 44.8581L37.7658 46.1062ZM33.6936 47.7936L32.7623 46.9599L32.7623 46.9599L33.6936 47.7936ZM31.912 49.7839L30.9807 48.9502L30.9805 48.9504L31.912 49.7839ZM24.325 49.7839L25.2566 48.9504L25.2564 48.9502L24.325 49.7839ZM22.5434 47.7936L23.4748 46.9599L23.4748 46.9599L22.5434 47.7936ZM18.4687 46.1062L18.5376 47.3543L18.5379 47.3543L18.4687 46.1062ZM15.7963 46.2538L15.8651 47.5019L15.8652 47.5019L15.7963 46.2538ZM10.4337 40.8887L11.6818 40.9581L11.6818 40.9577L10.4337 40.8887ZM10.5813 38.2188L11.8294 38.2878L11.8294 38.2875L10.5813 38.2188ZM8.8939 34.1466L9.72764 33.2153L9.7276 33.2153L8.8939 34.1466ZM6.90361 32.365L7.73731 31.4337L7.73709 31.4335L6.90361 32.365ZM5.20746 28.5715H6.45746H5.20746ZM6.90361 24.778L7.73709 25.7096L7.73731 25.7094L6.90361 24.778ZM8.8939 22.9964L9.7276 23.9278L9.7276 23.9278L8.8939 22.9964ZM10.5813 18.9217L9.33322 18.9906L9.33324 18.9909L10.5813 18.9217ZM10.4337 16.2493L9.18556 16.3174L9.1856 16.3182L10.4337 16.2493ZM15.7988 10.8892L15.7295 12.1373L15.7298 12.1373L15.7988 10.8892ZM18.4687 11.0368L18.3997 12.2849L18.4 12.285L18.4687 11.0368ZM22.5409 9.34943L21.6096 8.51566L21.6095 8.51569L22.5409 9.34943ZM21.7544 22.2077V20.9577C21.0641 20.9577 20.5044 21.5173 20.5044 22.2077H21.7544ZM21.7799 22.2077H23.0299C23.0299 21.5173 22.4702 20.9577 21.7799 20.9577V22.2077ZM21.7799 22.2331V23.4831C22.4702 23.4831 23.0299 22.9235 23.0299 22.2331H21.7799ZM21.7544 22.2331H20.5044C20.5044 22.9235 21.0641 23.4831 21.7544 23.4831V22.2331ZM34.4801 34.9333V33.6833C33.7897 33.6833 33.2301 34.243 33.2301 34.9333H34.4801ZM34.5055 34.9333H35.7555C35.7555 34.243 35.1959 33.6833 34.5055 33.6833V34.9333ZM34.5055 34.9588V36.2088C35.1959 36.2088 35.7555 35.6491 35.7555 34.9588H34.5055ZM34.4801 34.9588H33.2301C33.2301 35.6491 33.7897 36.2088 34.4801 36.2088V34.9588ZM36.6365 21.819C37.1247 21.3308 37.1247 20.5394 36.6365 20.0512C36.1484 19.5631 35.3569 19.5631 34.8687 20.0512L36.6365 21.819ZM19.598 35.322C19.1098 35.8102 19.1098 36.6016 19.598 37.0898C20.0861 37.5779 20.8776 37.5779 21.3657 37.0898L19.598 35.322ZM24.325 7.35659L25.2563 8.19042C25.6165 7.78815 26.0574 7.46635 26.5504 7.24605L26.0404 6.10482L25.5304 4.9636C24.7165 5.32733 23.9884 5.85861 23.3938 6.52276L24.325 7.35659ZM26.0404 6.10482L26.5504 7.24605C27.0434 7.02574 27.5773 6.91187 28.1173 6.91187V5.66187V4.41187C27.2258 4.41187 26.3443 4.59987 25.5304 4.9636L26.0404 6.10482ZM28.1173 5.66187V6.91187C28.6572 6.91187 29.1911 7.02574 29.6841 7.24605L30.1941 6.10482L30.7041 4.9636C29.8902 4.59987 29.0087 4.41187 28.1173 4.41187V5.66187ZM30.1941 6.10482L29.6841 7.24605C30.1771 7.46635 30.6181 7.78815 30.9782 8.19042L31.9095 7.35659L32.8407 6.52276C32.2461 5.85861 31.518 5.32733 30.7041 4.9636L30.1941 6.10482ZM31.9095 7.35659L30.9781 8.19029L32.7597 10.1806L33.6911 9.34688L34.6225 8.51318L32.8409 6.52289L31.9095 7.35659ZM33.6911 9.34688L32.7597 10.1806C33.3939 10.8891 34.1794 11.4459 35.058 11.8097L35.5362 10.6548L36.0145 9.49992C35.4823 9.27956 35.0066 8.94232 34.6224 8.51318L33.6911 9.34688ZM35.5362 10.6548L35.058 11.8097C35.9365 12.1735 36.8857 12.3351 37.8351 12.2824L37.7658 11.0343L37.6966 9.78622C37.1215 9.81814 36.5466 9.72029 36.0145 9.49992L35.5362 10.6548ZM37.7658 11.0343L37.8348 12.2824L40.5072 12.1348L40.4382 10.8867L40.3693 9.63859L37.6969 9.78621L37.7658 11.0343ZM40.4382 10.8867L40.507 12.1348C41.0463 12.1051 41.5857 12.1894 42.0902 12.3823L42.5367 11.2148L42.9832 10.0473C42.1504 9.72877 41.2597 9.5895 40.3694 9.63858L40.4382 10.8867ZM42.5367 11.2148L42.0902 12.3823C42.5946 12.5753 43.0527 12.8724 43.4345 13.2544L44.3186 12.3707L45.2027 11.4871C44.5723 10.8564 43.8161 10.3658 42.9832 10.0473L42.5367 11.2148ZM44.3186 12.3707L43.4345 13.2544C43.8163 13.6364 44.1133 14.0946 44.3059 14.5991L45.4737 14.1532L46.6414 13.7072C46.3233 12.8742 45.8331 12.1177 45.2027 11.4871L44.3186 12.3707ZM45.4737 14.1532L44.3059 14.5991C44.4986 15.1037 44.5827 15.6432 44.5527 16.1824L45.8008 16.2518L47.0489 16.3212C47.0984 15.4309 46.9595 14.5402 46.6414 13.7072L45.4737 14.1532ZM45.8008 16.2518L44.5527 16.1828L44.4051 18.8526L45.6532 18.9217L46.9013 18.9907L47.0489 16.3208L45.8008 16.2518ZM45.6532 18.9217L44.4051 18.853C44.3529 19.8019 44.5147 20.7504 44.8785 21.6284L46.0333 21.1499L47.188 20.6714C46.9677 20.1396 46.8697 19.5651 46.9013 18.9903L45.6532 18.9217ZM46.0333 21.1499L44.8785 21.6284C45.2423 22.5064 45.7988 23.2913 46.5069 23.9252L47.3406 22.9939L48.1744 22.0625C47.7455 21.6786 47.4084 21.2032 47.188 20.6714L46.0333 21.1499ZM47.3406 22.9939L46.5069 23.9252L48.4972 25.7068L49.3309 24.7754L50.1646 23.8441L48.1743 22.0625L47.3406 22.9939ZM49.3309 24.7754L48.4974 25.707C48.9 26.0672 49.2221 26.5083 49.4426 27.0015L50.5837 26.4912L51.7248 25.981C51.3608 25.1668 50.8291 24.4386 50.1644 23.8439L49.3309 24.7754ZM50.5837 26.4912L49.4426 27.0015C49.6631 27.4946 49.7771 28.0288 49.7771 28.569H51.0271H52.2771C52.2771 27.6771 52.0889 26.7952 51.7248 25.981L50.5837 26.4912ZM51.0271 28.569H49.7771C49.7771 29.1092 49.6631 29.6433 49.4426 30.1365L50.5837 30.6467L51.7248 31.1569C52.0889 30.3427 52.2771 29.4609 52.2771 28.569H51.0271ZM50.5837 30.6467L49.4426 30.1365C49.2221 30.6296 48.9 31.0707 48.4974 31.4309L49.3309 32.3625L50.1644 33.294C50.8291 32.6993 51.3608 31.9711 51.7248 31.1569L50.5837 30.6467ZM49.3309 32.3625L48.4972 31.4311L46.5069 33.2127L47.3406 34.1441L48.1743 35.0754L50.1646 33.2938L49.3309 32.3625ZM47.3406 34.1441L46.5069 33.2127C45.7984 33.8469 45.2416 34.6324 44.8778 35.5109L46.0327 35.9892L47.1876 36.4675C47.4079 35.9353 47.7452 35.4596 48.1743 35.0754L47.3406 34.1441ZM46.0327 35.9892L44.8778 35.5109C44.514 36.3895 44.3524 37.3386 44.4051 38.2881L45.6532 38.2188L46.9013 38.1496C46.8694 37.5745 46.9672 36.9996 47.1876 36.4675L46.0327 35.9892ZM45.6532 38.2188L44.4051 38.2878L44.5527 40.9601L45.8008 40.8912L47.0489 40.8223L46.9013 38.1499L45.6532 38.2188ZM45.8008 40.8912L44.5527 40.96C44.5824 41.4993 44.4981 42.0387 44.3052 42.5432L45.4727 42.9897L46.6402 43.4362C46.9587 42.6034 47.098 41.7127 47.0489 40.8224L45.8008 40.8912ZM45.4727 42.9897L44.3052 42.5432C44.1122 43.0476 43.8151 43.5057 43.4331 43.8875L44.3168 44.7716L45.2004 45.6557C45.8311 45.0253 46.3217 44.269 46.6402 43.4362L45.4727 42.9897ZM44.3168 44.7716L43.4331 43.8875C43.0511 44.2693 42.5929 44.5662 42.0884 44.7589L42.5343 45.9267L42.9803 47.0944C43.8133 46.7763 44.5698 46.286 45.2004 45.6557L44.3168 44.7716ZM42.5343 45.9267L42.0884 44.7589C41.5838 44.9516 41.0443 45.0357 40.5051 45.0057L40.4357 46.2538L40.3663 47.5019C41.2566 47.5514 42.1473 47.4125 42.9803 47.0944L42.5343 45.9267ZM40.4357 46.2538L40.5047 45.0057L37.8349 44.8581L37.7658 46.1062L37.6968 47.3543L40.3667 47.5019L40.4357 46.2538ZM37.7658 46.1062L37.8345 44.8581C36.8856 44.8059 35.9371 44.9676 35.0591 45.3314L35.5376 46.4862L36.0161 47.641C36.5479 47.4207 37.1224 47.3227 37.6972 47.3543L37.7658 46.1062ZM35.5376 46.4862L35.0591 45.3314C34.1811 45.6953 33.3962 46.2518 32.7623 46.9599L33.6936 47.7936L34.625 48.6273C35.0089 48.1984 35.4843 47.8614 36.0161 47.641L35.5376 46.4862ZM33.6936 47.7936L32.7623 46.9599L30.9807 48.9502L31.912 49.7839L32.8434 50.6176L34.625 48.6273L33.6936 47.7936ZM31.912 49.7839L30.9805 48.9504C30.6203 49.353 30.1792 49.6751 29.686 49.8956L30.1962 51.0367L30.7065 52.1778C31.5207 51.8138 32.2489 51.282 32.8436 50.6174L31.912 49.7839ZM30.1962 51.0367L29.686 49.8956C29.1929 50.1161 28.6587 50.23 28.1185 50.23V51.48V52.73C29.0104 52.73 29.8923 52.5419 30.7065 52.1778L30.1962 51.0367ZM28.1185 51.48V50.23C27.5783 50.23 27.0442 50.1161 26.551 49.8956L26.0408 51.0367L25.5306 52.1778C26.3448 52.5419 27.2266 52.73 28.1185 52.73V51.48ZM26.0408 51.0367L26.551 49.8956C26.0579 49.6751 25.6168 49.353 25.2566 48.9504L24.325 49.7839L23.3935 50.6174C23.9881 51.282 24.7164 51.8138 25.5306 52.1778L26.0408 51.0367ZM24.325 49.7839L25.2564 48.9502L23.4748 46.9599L22.5434 47.7936L21.6121 48.6273L23.3937 50.6176L24.325 49.7839ZM22.5434 47.7936L23.4748 46.9599C22.8406 46.2514 22.0551 45.6946 21.1765 45.3308L20.6983 46.4857L20.22 47.6406C20.7522 47.8609 21.2279 48.1982 21.6121 48.6273L22.5434 47.7936ZM20.6983 46.4857L21.1765 45.3308C20.298 44.9669 19.3489 44.8054 18.3994 44.8581L18.4687 46.1062L18.5379 47.3543C19.113 47.3223 19.6879 47.4202 20.22 47.6406L20.6983 46.4857ZM18.4687 46.1062L18.3997 44.8581L15.7273 45.0057L15.7963 46.2538L15.8652 47.5019L18.5376 47.3543L18.4687 46.1062ZM15.7963 46.2538L15.7275 45.0057C15.1882 45.0354 14.6488 44.9511 14.1443 44.7581L13.6978 45.9257L13.2513 47.0932C14.0841 47.4117 14.9748 47.551 15.8651 47.5019L15.7963 46.2538ZM13.6978 45.9257L14.1443 44.7581C13.6399 44.5652 13.1818 44.2681 12.8 43.8861L11.9159 44.7698L11.0318 45.6534C11.6622 46.2841 12.4184 46.7747 13.2513 47.0932L13.6978 45.9257ZM11.9159 44.7698L12.8 43.8861C12.4182 43.5041 12.1213 43.0459 11.9286 42.5413L10.7608 42.9873L9.59309 43.4333C9.91121 44.2663 10.4015 45.0228 11.0318 45.6534L11.9159 44.7698ZM10.7608 42.9873L11.9286 42.5413C11.7359 42.0368 11.6518 41.4973 11.6818 40.9581L10.4337 40.8887L9.18563 40.8193C9.13613 41.7096 9.27497 42.6003 9.59309 43.4333L10.7608 42.9873ZM10.4337 40.8887L11.6818 40.9577L11.8294 38.2878L10.5813 38.2188L9.33323 38.1498L9.18561 40.8197L10.4337 40.8887ZM10.5813 38.2188L11.8294 38.2875C11.8816 37.3386 11.7199 36.39 11.356 35.5121L10.2013 35.9906L9.04648 36.4691C9.26684 37.0009 9.36483 37.5754 9.33321 38.1502L10.5813 38.2188ZM10.2013 35.9906L11.356 35.5121C10.9922 34.6341 10.4357 33.8492 9.72764 33.2153L8.8939 34.1466L8.06016 35.0779C8.48904 35.4619 8.82612 35.9373 9.04648 36.4691L10.2013 35.9906ZM8.8939 34.1466L9.7276 33.2153L7.73731 31.4337L6.90361 32.365L6.06991 33.2964L8.0602 35.078L8.8939 34.1466ZM6.90361 32.365L7.73709 31.4335C7.3345 31.0733 7.01243 30.6322 6.79193 30.139L5.6508 30.6492L4.50967 31.1594C4.87372 31.9737 5.40545 32.7019 6.07013 33.2966L6.90361 32.365ZM5.6508 30.6492L6.79193 30.139C6.57143 29.6458 6.45746 29.1117 6.45746 28.5715H5.20746H3.95746C3.95746 29.4634 4.14563 30.3452 4.50967 31.1594L5.6508 30.6492ZM5.20746 28.5715H6.45746C6.45746 28.0313 6.57143 27.4972 6.79193 27.004L5.6508 26.4938L4.50967 25.9836C4.14563 26.7978 3.95746 27.6796 3.95746 28.5715H5.20746ZM5.6508 26.4938L6.79193 27.004C7.01243 26.5109 7.3345 26.0698 7.73709 25.7096L6.90361 24.778L6.07013 23.8464C5.40545 24.4411 4.87372 25.1694 4.50967 25.9836L5.6508 26.4938ZM6.90361 24.778L7.73731 25.7094L9.7276 23.9278L8.8939 22.9964L8.0602 22.065L6.06991 23.8466L6.90361 24.778ZM8.8939 22.9964L9.7276 23.9278C10.4361 23.2935 10.9929 22.5081 11.3567 21.6295L10.2018 21.1513L9.04694 20.673C8.82657 21.2051 8.48933 21.6809 8.06019 22.065L8.8939 22.9964ZM10.2018 21.1513L11.3567 21.6295C11.7205 20.751 11.8821 19.8018 11.8294 18.8524L10.5813 18.9217L9.33324 18.9909C9.36515 19.566 9.2673 20.1409 9.04694 20.673L10.2018 21.1513ZM10.5813 18.9217L11.8294 18.8527L11.6818 16.1803L10.4337 16.2493L9.1856 16.3182L9.33322 18.9906L10.5813 18.9217ZM10.4337 16.2493L11.6818 16.1811C11.6524 15.642 11.737 15.1027 11.93 14.5985L10.7626 14.1516L9.59528 13.7046C9.27655 14.5371 9.13695 15.4274 9.18556 16.3174L10.4337 16.2493ZM10.7626 14.1516L11.93 14.5985C12.1231 14.0943 12.4202 13.6365 12.8022 13.2549L11.9187 12.3706L11.0353 11.4863C10.4047 12.1163 9.914 12.8722 9.59528 13.7046L10.7626 14.1516ZM11.9187 12.3706L12.8022 13.2549C13.1842 12.8733 13.6423 12.5765 14.1467 12.384L13.7008 11.2162L13.255 10.0484C12.4222 10.3663 11.6659 10.8563 11.0353 11.4863L11.9187 12.3706ZM13.7008 11.2162L14.1467 12.384C14.6511 12.1914 15.1904 12.1073 15.7295 12.1373L15.7988 10.8892L15.8682 9.64116C14.9782 9.5917 14.0877 9.73046 13.255 10.0484L13.7008 11.2162ZM15.7988 10.8892L15.7298 12.1373L18.3997 12.2849L18.4687 11.0368L18.5377 9.78875L15.8678 9.64114L15.7988 10.8892ZM18.4687 11.0368L18.4 12.285C19.3489 12.3372 20.2974 12.1754 21.1754 11.8116L20.6969 10.6568L20.2184 9.50201C19.6866 9.72237 19.1121 9.82036 18.5373 9.78874L18.4687 11.0368ZM20.6969 10.6568L21.1754 11.8116C22.0534 11.4478 22.8383 10.8912 23.4722 10.1832L22.5409 9.34943L21.6095 8.51569C21.2256 8.94457 20.7502 9.28165 20.2184 9.50201L20.6969 10.6568ZM22.5409 9.34943L23.4722 10.1832L25.2563 8.19036L24.325 7.35659L23.3937 6.52282L21.6096 8.51566L22.5409 9.34943ZM21.7544 22.2077V23.4577H21.7799V22.2077V20.9577H21.7544V22.2077ZM21.7799 22.2077H20.5299V22.2331H21.7799H23.0299V22.2077H21.7799ZM21.7799 22.2331V20.9831H21.7544V22.2331V23.4831H21.7799V22.2331ZM21.7544 22.2331H23.0044V22.2077H21.7544H20.5044V22.2331H21.7544ZM34.4801 34.9333V36.1833H34.5055V34.9333V33.6833H34.4801V34.9333ZM34.5055 34.9333H33.2555V34.9588H34.5055H35.7555V34.9333H34.5055ZM34.5055 34.9588V33.7088H34.4801V34.9588V36.2088H34.5055V34.9588ZM34.4801 34.9588H35.7301V34.9333H34.4801H33.2301V34.9588H34.4801ZM35.7526 20.9351L34.8687 20.0512L19.598 35.322L20.4819 36.2059L21.3657 37.0898L36.6365 21.819L35.7526 20.9351Z" fill="#1F94D2"/>
</svg>
