<svg width="56" height="56" viewBox="0 0 56 56" fill="none" xmlns="http://www.w3.org/2000/svg">
<path d="M35.4497 19.238L21.4497 33.238M35.4497 33.238H35.4287M21.4707 19.238H21.4497M25.8224 50.766L21.0857 47.9544C19.8817 47.2404 19.282 46.8834 18.6124 46.8647C17.8937 46.8414 17.2824 47.1844 15.9827 47.9544C14.5267 48.8177 11.6334 51.1977 9.76203 50.0637C8.61636 49.3684 8.61636 47.6044 8.61636 44.0787V19.238C8.61636 12.6394 8.61636 9.3377 10.6674 7.28904C12.716 5.23804 16.0177 5.23804 22.6164 5.23804H34.283C40.8817 5.23804 44.1834 5.23804 46.232 7.28904C48.283 9.3377 48.283 12.6394 48.283 19.238V44.0787C48.283 47.6044 48.283 49.3684 47.1397 50.0637C45.266 51.1977 42.3727 48.8177 40.9167 47.9544C39.715 47.2404 39.113 46.8834 38.448 46.8647C37.7247 46.8414 37.1134 47.1844 35.816 47.9544L31.0794 50.766C29.8007 51.5244 29.1614 51.9047 28.4497 51.9047C27.738 51.9047 27.0987 51.5244 25.8224 50.766Z" stroke="#1F94D2" stroke-width="2.5" stroke-linecap="round" stroke-linejoin="round"/>
</svg>
